<svg xmlns="http://www.w3.org/2000/svg" xmlns:xlink="http://www.w3.org/1999/xlink" version="1.1" width="1200" height="800" viewBox="0 0 1200 800">
<defs>
<clipPath id="clip_0">
<path transform="matrix(1,0,0,-1,0,800)" d="M0 800H1200V0H0Z"/>
</clipPath>
</defs>
<g id="layer_1" data-name="Layer 1">
<path transform="matrix(1,0,0,-1,0,800)" d="M0 0H1200V800H0Z" fill="#1a224c"/>
<g clip-path="url(#clip_0)">
<path transform="matrix(1,0,0,-1,716.2422,282.063)" d="M0 0C5.67 0 11.319-.088 16.953-.239L-115.951 132.666-374.096-125.478C-270.088-46.737-140.51 0 0 0" fill="#ffffff"/>
<path transform="matrix(1,0,0,-1,891.2041,440.3105)" d="M0 0-109.266 109.266C-130.829 111.718-152.742 113.022-174.962 113.022-270.892 113.022-361.316 89.505-440.84 47.972-392.437 59.105-341.195 65.096-288.149 65.096-182.124 65.096-83.28 41.21 0 0" fill="#ffffff"/>
<path transform="matrix(1,0,0,-1,569.8335,585.7656)" d="M0 0H-131.854C-138.901 0-144.614 5.714-144.614 12.76V105.659H-119.094V25.52H0Z" fill="#ffffff"/>
<path transform="matrix(1,0,0,-1,748.7549,511.8926)" d="M0 0C0-4.993-4.047-9.04-9.04-9.04H-109.225V9.042H-9.04C-4.047 9.042 0 4.993 0 0M0-42.2C0-47.193-4.047-51.24-9.04-51.24H-109.225V-33.159H-9.04C-4.047-33.159 0-37.207 0-42.2M25.594-.859C25.594 17.234 10.875 31.953-7.218 31.953H-134.816V-8.529-33.671-74.152H-7.218C10.875-74.152 25.594-59.435 25.594-41.341 25.594-33.702 22.947-26.682 18.556-21.1 22.947-15.518 25.594-8.498 25.594-.859" fill="#ffffff"/>
<path transform="matrix(1,0,0,-1,252.1499,531.99026)" d="M0 0 24.131 24.132 48.264 0ZM102.039-53.775H138.13L33.153 51.196C28.173 56.182 20.091 56.182 15.11 51.196L-89.866-53.775H-53.776L-25.521-25.52H73.784Z" fill="#ffffff"/>
<path transform="matrix(1,0,0,-1,899.1533,531.99026)" d="M0 0 24.132 24.132 48.265 0ZM102.04-53.775H138.131L33.153 51.196C28.174 56.182 20.092 56.182 15.11 51.196L-89.865-53.775H-53.775L-25.52-25.52H73.784Z" fill="#ffffff"/>
</g>
</g>
</svg>
